<?xml version="1.0" encoding="UTF-8" standalone="no"?>
<!-- Created with Inkscape (http://www.inkscape.org/) -->

<svg
   width="10mm"
   height="10mm"
   viewBox="0 0 10 10"
   version="1.1"
   id="svg5"
   inkscape:version="1.1.1 (3bf5ae0d25, 2021-09-20)"
   sodipodi:docname="rename.svg"
   xmlns:inkscape="http://www.inkscape.org/namespaces/inkscape"
   xmlns:sodipodi="http://sodipodi.sourceforge.net/DTD/sodipodi-0.dtd"
   xmlns="http://www.w3.org/2000/svg"
   xmlns:svg="http://www.w3.org/2000/svg">
  <sodipodi:namedview
     id="namedview7"
     pagecolor="#ffffff"
     bordercolor="#666666"
     borderopacity="1.0"
     inkscape:pageshadow="2"
     inkscape:pageopacity="0.0"
     inkscape:pagecheckerboard="0"
     inkscape:document-units="mm"
     showgrid="false"
     inkscape:zoom="24.886869"
     inkscape:cx="25.6561"
     inkscape:cy="30.940011"
     inkscape:window-width="3695"
     inkscape:window-height="2120"
     inkscape:window-x="3973"
     inkscape:window-y="-12"
     inkscape:window-maximized="1"
     inkscape:current-layer="layer1" />
  <defs
     id="defs2" />
  <g
     inkscape:label="Ebene 1"
     inkscape:groupmode="layer"
     id="layer1">
    <path
       style="fill:#000000;stroke-width:0.0195214"
       d="M 6.8519346,9.3609652 C 6.7627865,9.3003888 6.7105545,9.1786701 6.7283943,9.0730769 6.7513537,8.9371607 6.9043804,8.8236166 7.0651208,8.8232231 7.1312719,8.8230754 7.2472782,8.7695566 7.3109736,8.709831 7.4168161,8.6105809 7.4393778,8.5287446 7.4398521,8.2423526 L 7.4402953,7.9836937 H 4.2033126 c -2.2250464,0 -3.27317898,-0.00653 -3.35280125,-0.020999 C 0.45762596,7.8914699 0.11358792,7.5572052 0.03070397,7.1661768 -0.01104195,6.9692292 -0.00984583,3.1098823 0.03201577,2.932331 0.12364914,2.5436816 0.46310886,2.2185043 0.85051106,2.1482722 0.93013333,2.1338376 1.9782659,2.1272732 4.2033123,2.1272732 H 7.4402811 V 1.872868 c 0,-0.2782942 -0.019366,-0.3560778 -0.1132842,-0.4550338 C 7.2599297,1.3471684 7.1451037,1.287884 7.0750324,1.2877438 6.903259,1.2873749 6.7520006,1.1776173 6.7280598,1.0359107 6.7103918,0.93133322 6.7706167,0.7952392 6.8581911,0.74184708 7.0266168,0.63916141 7.4425273,0.73705863 7.6555772,0.92953588 l 0.077245,0.0697864 0.067685,-0.0594316 C 8.0349471,0.73405011 8.4489699,0.63514354 8.6115723,0.74613408 8.8484273,0.90780893 8.7531328,1.239845 8.4588411,1.2782971 8.3073788,1.298087 8.2064514,1.3443175 8.1366281,1.4258907 8.0461484,1.531597 8.0259196,1.6164703 8.0259196,1.8904011 v 0.2368724 l 0.512437,3.689e-4 c 0.3642933,2.214e-4 0.549809,0.00826 0.6417075,0.027739 0.3840442,0.081403 0.7080355,0.4053943 0.7894386,0.789439 0.041033,0.1935818 0.040486,4.0303744 -5.901e-4,4.2242719 -0.080197,0.3784572 -0.408659,0.7059697 -0.788835,0.7865533 -0.091899,0.01948 -0.2774149,0.027497 -0.6417082,0.027739 l -0.512437,3.686e-4 V 8.220626 c 0,0.2739308 0.020225,0.3588045 0.1107084,0.4645106 0.069823,0.081573 0.1707508,0.1278034 0.322213,0.147594 0.226109,0.029542 0.350838,0.2365277 0.2532242,0.4202196 -0.057643,0.1084743 -0.1441114,0.1558666 -0.2843858,0.1558666 -0.218734,0 -0.4610657,-0.091837 -0.6271721,-0.2376795 l -0.067685,-0.059433 -0.077245,0.069787 C 7.4347113,9.3810434 7.0183037,9.4740675 6.8519467,9.3610255 Z M 7.4402811,5.0554841 V 2.7129154 l -3.2454341,2.213e-4 -3.24543355,2.214e-4 -0.0976071,0.046029 c -0.11631451,0.054851 -0.16933226,0.108828 -0.22285577,0.226889 -0.0392482,0.086572 -0.0398256,0.1165824 -0.0398256,2.0692688 0,1.9526856 5.7551e-4,1.9826963 0.0398256,2.0692688 0.0535238,0.11806 0.10654126,0.1720376 0.22285577,0.2268887 l 0.0976071,0.046032 3.24543355,2.216e-4 3.2454341,1.477e-4 z M 3.2295287,6.9670164 C 3.1437027,6.924533 3.0674858,6.8068312 3.0674858,6.7167741 c 0,-0.024347 -0.00659,-0.04088 -0.014641,-0.036741 C 2.7488485,6.8363211 2.5740101,6.8790407 2.2963904,6.8648635 1.7627515,6.8376115 1.3290816,6.5093413 1.1469826,5.9948099 1.0932863,5.8430882 1.0874382,5.8035913 1.0873869,5.5923226 1.0873225,5.3267329 1.115547,5.2046861 1.225678,4.9943301 1.356074,4.7452682 1.5549726,4.5531894 1.8083552,4.4316304 2.0153956,4.3323047 2.1398507,4.3044809 2.3744759,4.3050682 2.5913346,4.3055847 2.7833881,4.3525666 2.962837,4.4489196 l 0.1003258,0.053868 0.010493,-0.078227 c 0.019968,-0.1488702 0.1463293,-0.2546651 0.3013728,-0.252321 0.09513,0.00144 0.1600107,0.038251 0.2280901,0.1294153 0.039497,0.05289 0.040348,0.076486 0.045562,1.2627331 0.0052,1.1828053 0.00446,1.2105133 -0.034425,1.2867305 -0.043656,0.085572 -0.156217,0.1565161 -0.2482907,0.1564902 -0.029954,-8.1e-6 -0.09135,-0.018275 -0.1364363,-0.040592 z M 2.6685787,6.2172351 C 2.8100958,6.1479976 2.9311628,6.0257465 3.0029151,5.87963 c 0.047738,-0.097213 0.05481,-0.1342842 0.05481,-0.2873074 0,-0.1523902 -0.00746,-0.1918346 -0.056212,-0.2973955 C 2.9334187,5.1475002 2.7982347,5.0148023 2.642272,4.9422934 2.549018,4.8989378 2.5033387,4.8903976 2.3647153,4.8903976 c -0.138317,0 -0.1843695,0.00857 -0.2767189,0.051512 -0.1547637,0.07196 -0.2775013,0.191977 -0.3528478,0.3450276 -0.056531,0.1148293 -0.063443,0.1469959 -0.063443,0.2952138 0,0.2541454 0.094678,0.4406928 0.2929786,0.5772679 0.1433224,0.09871 0.2441475,0.1266677 0.4314263,0.1196297 0.1266925,-0.00476 0.1810743,-0.017098 0.2724682,-0.061814 z M 4.303206,6.9670164 C 4.2446709,6.9380416 4.2097841,6.9027924 4.1811972,6.8437398 4.1417692,6.7622929 4.1411631,6.7352195 4.1411631,5.0554841 c 0,-1.6822469 5.534e-4,-1.7066923 0.040216,-1.7886328 0.043645,-0.090158 0.1600774,-0.1635076 0.2595458,-0.1635076 0.090483,0 0.2035914,0.071402 0.2465745,0.1556558 0.036675,0.07189 0.039306,0.1143284 0.039306,0.6341832 0,0.3064256 0.00426,0.5571381 0.00947,0.5571381 0.00521,0 0.051327,-0.025681 0.1024873,-0.057068 0.4409385,-0.2705118 1.0278022,-0.2564283 1.4733258,0.035358 0.2702054,0.1769654 0.4727776,0.443484 0.5778553,0.7602695 0.043348,0.130685 0.04964,0.1830818 0.049597,0.4132025 -3.98e-5,0.2326277 -0.00611,0.2818571 -0.051735,0.4197101 C 6.6753932,6.6635561 6.042595,7.0757153 5.3952872,6.9939114 5.1870487,6.9675957 5.0083222,6.9100171 4.8560139,6.8201798 4.7928686,6.7829348 4.7390442,6.7549693 4.7364043,6.7580342 c -0.00264,0.00306 -0.023964,0.043567 -0.047387,0.090006 -0.031187,0.06183 -0.064491,0.094378 -0.1244083,0.1215804 -0.1054393,0.04787 -0.1605439,0.047321 -0.2614024,-0.00261 z M 5.8395257,6.3654434 C 6.2374651,6.2142632 6.4533925,5.7700554 6.3273326,5.3619223 6.1101674,4.6588234 5.1364131,4.5815334 4.8133961,5.2417555 4.588851,5.7007094 4.8383439,6.2540824 5.3319685,6.3919472 c 0.1400878,0.039124 0.3658373,0.027336 0.5075572,-0.026504 z m 3.3088782,0.9861984 c 0.1163145,-0.054852 0.1693326,-0.1088287 0.2228557,-0.226889 0.03925,-0.086572 0.039826,-0.1165831 0.039826,-2.0692687 0,-1.9526863 -5.901e-4,-1.9826971 -0.039826,-2.0692688 C 9.3177365,2.8681542 9.2647184,2.8141771 9.1484039,2.7593263 9.0536328,2.7146338 9.0359108,2.7132909 8.5383602,2.7131064 l -0.512437,-2.212e-4 v 2.3425679 2.3425683 l 0.512437,-2.216e-4 c 0.4975506,-1.477e-4 0.5152726,-0.00156 0.6100437,-0.046217 z"
       id="path854" />
  </g>
</svg>
